<?xml version="1.0" encoding="UTF-8"?>
<svg version="1.1" xmlns="http://www.w3.org/2000/svg" width="255" height="256">
<path d="M0 0 C1.45713095 -0.01140266 2.91422416 -0.03166347 4.37109375 -0.06152344 C28.88507619 -0.56237983 51.78845371 8.29296185 70.40258789 24.29516602 C71.32104492 25.01446289 71.32104492 25.01446289 72.25805664 25.74829102 C91.81763134 41.32433677 102.66851668 66.58351772 106.98852539 90.54516602 C110.24256993 120.01575811 103.69860915 149.11549117 85.40258789 172.73266602 C82.07818026 176.67833471 78.5009843 180.3314825 74.77368164 183.89672852 C72.86039675 185.83207765 71.10657558 187.7871147 69.34228516 189.85327148 C65.10715375 194.70935418 60.57335799 199.2321803 55.99633789 203.76391602 C55.1128064 204.64366089 54.2292749 205.52340576 53.31896973 206.42980957 C50.04286469 209.69173546 46.76223809 212.94909166 43.48126221 216.20611572 C40.25428251 219.41003862 37.03120709 222.61785718 33.80883789 225.82641602 C32.97010132 226.65685425 32.13136475 227.48729248 31.26721191 228.34289551 C26.98791604 232.60447173 22.85934756 236.92977962 18.93388367 241.52061462 C16.30183158 244.57078414 13.52618576 247.47320616 10.71508789 250.35766602 C10.16014648 250.94999023 9.60520508 251.54231445 9.03344727 252.15258789 C7.39086914 253.83032227 7.39086914 253.83032227 4.40258789 256.29516602 C0.16664232 255.85153658 -1.95090986 253.40741064 -4.90991211 250.48266602 C-5.81354492 249.6099707 -6.71717773 248.73727539 -7.64819336 247.83813477 C-9.59741211 245.29516602 -9.59741211 245.29516602 -9.47183228 243.40911865 C-8.3165466 240.61616019 -6.70720397 239.05279503 -4.5559082 236.92895508 C-3.26854263 235.64677094 -3.26854263 235.64677094 -1.95516968 234.33868408 C-1.01984406 233.42197937 -0.08451843 232.50527466 0.87915039 231.56079102 C1.84817091 230.59991603 2.81645198 229.6382948 3.7840271 228.67596436 C6.33628724 226.1408244 8.8969636 223.61436685 11.45996094 221.09008789 C15.54232414 217.06685252 19.61233153 213.03113431 23.68137741 208.99443817 C25.09366605 207.59592913 26.51011483 206.20162517 27.92666626 204.80743408 C32.41694636 200.36710956 36.73357623 195.86963898 40.84317017 191.07522583 C43.17680489 188.41140502 45.68947277 185.9576869 48.23852539 183.50219727 C49.31449941 182.44862343 50.39000544 181.39457148 51.46508789 180.34008789 C53.11437135 178.72760139 54.76642043 177.1184318 56.42700195 175.51757812 C74.3828117 158.17401979 87.22460103 136.81821468 88.40258789 111.29516602 C88.45415039 110.60422852 88.50571289 109.91329102 88.55883789 109.20141602 C89.53505231 85.44686503 80.0717614 62.79946795 64.40258789 45.29516602 C63.8624707 44.66094727 63.32235352 44.02672852 62.76586914 43.37329102 C49.20900361 28.48464273 27.21478517 20.1240312 7.52758789 19.09204102 C-16.22602449 18.64185787 -37.94725916 26.13989972 -55.59741211 42.29516602 C-72.42646065 58.66052926 -81.78996273 80.7621513 -82.59350586 104.12329102 C-82.92342336 129.62891271 -72.86735297 150.12072392 -56.83178711 169.42016602 C-55.15747233 171.96342897 -55.05834585 174.32395093 -55.18725586 177.32250977 C-55.92752929 180.88287243 -57.67253104 182.30375763 -60.59741211 184.29516602 C-64.22377433 185.11622916 -66.35131555 185.08085742 -69.54272461 183.06860352 C-87.44196671 168.25785809 -98.63668107 143.42146221 -101.38208008 120.64038086 C-104.28937917 88.97653159 -96.4455117 61.21905827 -76.59741211 36.29516602 C-76.02120117 35.56297852 -75.44499023 34.83079102 -74.85131836 34.07641602 C-56.65412971 12.0826916 -28.02446037 0.15178496 0 0 Z " fill="#62A744" transform="translate(124.597412109375,-0.295166015625)"/>
<path d="M0 0 C1.42009982 0.05235391 2.8392313 0.14664232 4.25390625 0.28125 C5.3512207 0.33539063 5.3512207 0.33539063 6.47070312 0.390625 C8.25491782 0.48391727 10.03639102 0.62739514 11.81640625 0.78125 C9.73595253 4.50439681 7.42477452 7.48156308 4.49121094 10.5715332 C3.61889832 11.49211014 2.74658569 12.41268707 1.84783936 13.36116028 C-2.15820619 17.53378549 -6.19174351 21.67939532 -10.23925781 25.81176758 C-12.36820301 27.98968859 -14.47444527 30.18636617 -16.56347656 32.40258789 C-19.10110509 35.09427925 -21.67465794 37.74632202 -24.27687836 40.3755703 C-25.25470282 41.37586446 -26.21969216 42.38889431 -27.17032623 43.41506386 C-31.29539102 47.85060358 -34.99059314 51.80704924 -41.23376465 52.38778687 C-44.91483054 52.49429519 -48.5268915 52.22261422 -52.18359375 51.78125 C-52.18359375 48.78125 -52.18359375 48.78125 -50.70619202 47.22496033 C-49.69739235 46.4057888 -49.69739235 46.4057888 -48.66821289 45.57006836 C-44.36758716 41.96366904 -40.39056997 38.13321291 -36.4296875 34.16015625 C-35.72513931 33.45656479 -35.02059113 32.75297333 -34.29469299 32.02806091 C-32.81706008 30.55110352 -31.34066918 29.07290258 -29.86547852 27.59350586 C-27.62692894 25.34959915 -25.38308902 23.11108296 -23.13867188 20.87304688 C-21.69368971 19.42740382 -20.24901783 17.98145055 -18.8046875 16.53515625 C-18.14407822 15.8765712 -17.48346893 15.21798615 -16.80284119 14.53944397 C-12.91881447 10.6361166 -9.30324755 6.63165784 -5.85546875 2.33494568 C-3.87237621 0.4920314 -2.66529332 0.2151581 0 0 Z " fill="#62A643" transform="translate(177.18359375,78.21875)"/>
<path d="M0 0 C-1.52954729 3.56103664 -3.64281958 5.96966212 -6.3034668 8.76855469 C-7.1958757 9.70922791 -8.08828461 10.64990112 -9.00773621 11.61907959 C-13.11821007 15.89572363 -17.25570563 20.14579162 -21.4074707 24.38232422 C-23.59175643 26.61554093 -25.75340011 28.86753963 -27.89770508 31.13916016 C-30.49902763 33.89451706 -33.13628998 36.61029733 -35.80216408 39.30319977 C-36.80509568 40.32861452 -37.79518335 41.36677484 -38.7709713 42.41805267 C-46.7903054 51.02490766 -46.7903054 51.02490766 -53.06582642 51.62219238 C-56.74340556 51.73119275 -60.34814168 51.45350522 -64 51 C-62.47045271 47.43896336 -60.35718042 45.03033788 -57.6965332 42.23144531 C-56.8041243 41.29077209 -55.91171539 40.35009888 -54.99226379 39.38092041 C-50.88178993 35.10427637 -46.74429437 30.85420838 -42.5925293 26.61767578 C-40.40824357 24.38445907 -38.24659989 22.13246037 -36.10229492 19.86083984 C-33.50097237 17.10548294 -30.86371002 14.38970267 -28.19783592 11.69680023 C-27.19490432 10.67138548 -26.20481665 9.63322516 -25.2290287 8.58194733 C-17.10660596 -0.13554888 -11.45302847 -1.4222918 0 0 Z " fill="#62A643" transform="translate(161,79)"/>
<path d="M0 0 C-1.52954729 3.56103664 -3.64281958 5.96966212 -6.3034668 8.76855469 C-7.1958757 9.70922791 -8.08828461 10.64990112 -9.00773621 11.61907959 C-13.11821007 15.89572363 -17.25570563 20.14579162 -21.4074707 24.38232422 C-23.59175643 26.61554093 -25.75340011 28.86753963 -27.89770508 31.13916016 C-30.49902763 33.89451706 -33.13628998 36.61029733 -35.80216408 39.30319977 C-36.80509568 40.32861452 -37.79518335 41.36677484 -38.7709713 42.41805267 C-46.7903054 51.02490766 -46.7903054 51.02490766 -53.06582642 51.62219238 C-56.74340556 51.73119275 -60.34814168 51.45350522 -64 51 C-62.47045271 47.43896336 -60.35718042 45.03033788 -57.6965332 42.23144531 C-56.8041243 41.29077209 -55.91171539 40.35009888 -54.99226379 39.38092041 C-50.88178993 35.10427637 -46.74429437 30.85420838 -42.5925293 26.61767578 C-40.40824357 24.38445907 -38.24659989 22.13246037 -36.10229492 19.86083984 C-33.50097237 17.10548294 -30.86371002 14.38970267 -28.19783592 11.69680023 C-27.19490432 10.67138548 -26.20481665 9.63322516 -25.2290287 8.58194733 C-17.10660596 -0.13554888 -11.45302847 -1.4222918 0 0 Z " fill="#61A643" transform="translate(135,79)"/>
</svg>
